<?xml version="1.0" encoding="utf-8"?>
<!-- Generator: Adobe Illustrator 28.3.0, SVG Export Plug-In . SVG Version: 6.00 Build 0)  -->
<svg version="1.1" id="Capa_1" xmlns="http://www.w3.org/2000/svg" xmlns:xlink="http://www.w3.org/1999/xlink" x="0px" y="0px"
	 viewBox="0 0 174.7 172.4" style="enable-background:new 0 0 174.7 172.4;" xml:space="preserve">
<style type="text/css">
	.st0{fill:#0678B5;}
</style>
<path class="st0" d="M38.5,172.4H0v-86c0-23.7,8.6-44.2,25.6-61.1C41,10.1,59.5,1.6,80.5,0.1L81.8,0v36.8l-1,0.1
	c-10.8,1.5-20.5,6.4-28,14.3c-9.3,9.7-14,21.6-14,35.1C38.8,86.3,38.5,172.4,38.5,172.4z M87.3,172.4H55.9v-36.6h31.3
	c13.5,0,25-4.9,34.4-14.5c9.5-9.7,14.2-21.5,14.2-34.9s-4.7-25.4-14-35.1C115,44.1,107.9,39.9,99.6,38l-0.9-0.2V0.6l1.3,0.2
	c18.6,2.5,34.6,10.5,48.9,24.6c17.3,17.1,25.8,37,25.8,61.1s-8.4,44.1-25.7,61C132,164,111.2,172.4,87.3,172.4L87.3,172.4z"/>
</svg>
