<svg viewBox="0 0 64 64" xmlns="http://www.w3.org/2000/svg"><g fill="#222"><path d="M42 55.5H22A13.52 13.52 0 0 1 8.5 42V22A13.52 13.52 0 0 1 22 8.5h20A13.52 13.52 0 0 1 55.5 22v20A13.52 13.52 0 0 1 42 55.5zm-20-44A10.51 10.51 0 0 0 11.5 22v20A10.51 10.51 0 0 0 22 52.5h20A10.51 10.51 0 0 0 52.5 42V22A10.51 10.51 0 0 0 42 11.5z"/><path d="M45.43 21.07a2.72 2.72 0 0 1-.49-.05 2.43 2.43 0 0 1-.9-.37 2.85 2.85 0 0 1-.38-.31 3.68 3.68 0 0 1-.31-.38 2.43 2.43 0 0 1-.37-.9 2.43 2.43 0 0 1 0-1 2.43 2.43 0 0 1 .37-.9 3.68 3.68 0 0 1 .31-.38 2.85 2.85 0 0 1 .38-.31 2.43 2.43 0 0 1 .9-.37 2.69 2.69 0 0 1 1 0 2.79 2.79 0 0 1 .47.14 2.55 2.55 0 0 1 .43.23 2.43 2.43 0 0 1 .69.69 2.43 2.43 0 0 1 .37.9 2.43 2.43 0 0 1 0 1 2.43 2.43 0 0 1-.37.9 3.68 3.68 0 0 1-.31.38 3.68 3.68 0 0 1-.38.31 2.55 2.55 0 0 1-.43.23 2.79 2.79 0 0 1-.47.14 2.72 2.72 0 0 1-.51.05zM32 43.18A11.18 11.18 0 1 1 43.18 32 11.2 11.2 0 0 1 32 43.18zm0-19.36A8.18 8.18 0 1 0 40.18 32 8.19 8.19 0 0 0 32 23.82z"/></g></svg>