<svg xmlns="http://www.w3.org/2000/svg" viewBox="0 0 64 64"><g data-name="Outline asal"><path d="M24 47h-6a1 1 0 0 1-1-1V27a1 1 0 0 1 1-1h6a1 1 0 0 1 1 1v19a1 1 0 0 1-1 1Zm-5-2h4V28h-4ZM46 47h-6a1 1 0 0 1-1-1V33.224a6.002 6.002 0 0 0-3 1.236V46a1 1 0 0 1-1 1h-6a1 1 0 0 1-1-1V27a1 1 0 0 1 1-1h6a1 1 0 0 1 1 1v.224A11.649 11.649 0 0 1 42.031 26h.001A4.998 4.998 0 0 1 47 31v15a1 1 0 0 1-1 1Zm-5-2h4V31a3.003 3.003 0 0 0-3-3 9.571 9.571 0 0 0-6.438 1.827A1 1 0 0 1 34 29v-1h-4v17h4V34a1 1 0 0 1 .293-.707 8.008 8.008 0 0 1 4.55-2.063 1.956 1.956 0 0 1 1.494.498A2.025 2.025 0 0 1 41 33.224ZM21 25a4 4 0 1 1 4-4 4.004 4.004 0 0 1-4 4Zm0-6a2 2 0 1 0 2 2 2.002 2.002 0 0 0-2-2Z"/><path d="M49 54H15a5.006 5.006 0 0 1-5-5V15a5.006 5.006 0 0 1 5-5h34a5.006 5.006 0 0 1 5 5v34a5.006 5.006 0 0 1-5 5ZM15 12a3.003 3.003 0 0 0-3 3v34a3.003 3.003 0 0 0 3 3h34a3.003 3.003 0 0 0 3-3V15a3.003 3.003 0 0 0-3-3Z"/></g></svg>