<svg version="1.1" id="Capa_1" xmlns="http://www.w3.org/2000/svg" x="0" y="0" viewBox="0 0 1000 500" style="enable-background:new 0 0 1000 500" xml:space="preserve"><style>.st0{fill:#0077b3}.st1,.st2{fill:#1d1d1b}.st2{fill-rule:evenodd;clip-rule:evenodd}</style><path class="st0" d="M68.7 336.2H30.2v-86c0-23.7 8.6-44.2 25.6-61.1 15.4-15.2 33.9-23.7 54.9-25.2l1.3-.1v36.8l-1 .1c-10.8 1.5-20.5 6.4-28 14.3-9.3 9.7-14 21.6-14 35.1l-.3 86.1zM117.5 336.2H86.1v-36.6h31.3c13.5 0 25-4.9 34.4-14.5 9.5-9.7 14.2-21.5 14.2-34.9s-4.7-25.4-14-35.1c-6.8-7.2-13.9-11.4-22.2-13.3l-.9-.2v-37.2l1.3.2c18.6 2.5 34.6 10.5 48.9 24.6 17.3 17.1 25.8 37 25.8 61.1s-8.4 44.1-25.7 61c-17 16.5-37.8 24.9-61.7 24.9z"/><path class="st1" d="M605.8 304.5v-8.7c-3 3.9-6.1 6.5-9.4 7.7-3.3 1.2-6.8 1.8-10.6 1.8-3.5 0-6.7-.5-9.6-1.6-2.8-1.1-5.1-2.5-6.9-4.3-3.5-3.5-5.8-7.8-6.9-12.9-1.2-5.2-1.8-10.4-1.8-15.7s.6-10.6 1.8-15.7c1.2-5.2 3.5-9.5 6.9-12.9 1.8-1.8 4.1-3.2 6.9-4.3 2.8-1.1 6-1.6 9.6-1.6 3.8 0 7.4.6 10.6 1.8 3.3 1.2 6.4 3.8 9.4 7.7V205h7.1v99.5h-7.1zm0-33.7c0-3.5-.2-6.9-.6-10.3-.4-3.4-1.3-6.4-2.7-9.1-1.3-2.7-3.3-4.8-5.8-6.4-2.5-1.6-5.8-2.5-9.9-2.5s-7.4.8-9.9 2.5c-2.5 1.6-4.5 3.8-5.8 6.4-1.3 2.7-2.2 5.7-2.7 9.1-.4 3.4-.6 6.8-.6 10.3 0 3.5.2 7 .6 10.3.4 3.4 1.3 6.4 2.7 9 1.3 2.7 3.3 4.8 5.8 6.4 2.5 1.6 5.8 2.5 9.9 2.5s7.4-.8 9.9-2.5c2.5-1.6 4.5-3.8 5.8-6.4 1.3-2.7 2.2-5.7 2.7-9s.6-6.8.6-10.3zM632.1 213.8V205h8.8v8.8h-8.8zm.8 90.7v-67.4h7.1v67.4h-7.1zM710.2 285.4c0 6.2-2.5 11-7.3 14.6-4.9 3.6-11.5 5.4-19.8 5.4-5.9 0-11-.8-15.4-2.4-4.4-1.6-8.4-4-11.8-7.3l4.9-4.9c5.2 5.5 12.6 8.3 22.1 8.3 6.6 0 11.6-1.1 15.1-3.4s5.2-5.7 5.2-10.3c0-3.5-1-6.2-3.1-8-2-1.8-5.3-2.9-9.8-3.4l-11.2-1c-13.5-1.1-20.3-7-20.3-17.6 0-5.9 2.2-10.5 6.6-14s10.3-5.2 17.7-5.2c4.7 0 9 .7 13.1 1.9 4 1.3 7.6 3.1 10.6 5.3l-4.8 4.8c-5.2-3.8-11.5-5.7-18.9-5.7-5.6 0-9.8 1.1-12.8 3.3s-4.4 5.4-4.4 9.6c0 3.5 1.1 6.2 3.3 7.9 2.2 1.8 5.7 2.9 10.4 3.3l10.9 1c2.8.3 5.4.7 7.8 1.3 2.4.6 4.5 1.6 6.2 2.9s3.1 3.1 4.1 5.3c1.1 2.3 1.6 5 1.6 8.3zM771.7 285.4c0 6.2-2.5 11-7.3 14.6-4.9 3.6-11.5 5.4-19.8 5.4-5.9 0-11-.8-15.4-2.4-4.4-1.6-8.4-4-11.8-7.3l4.9-4.9c5.2 5.5 12.6 8.3 22.1 8.3 6.6 0 11.6-1.1 15.1-3.4s5.2-5.7 5.2-10.3c0-3.5-1-6.2-3.1-8-2-1.8-5.3-2.9-9.8-3.4l-11.2-1c-13.5-1.1-20.3-7-20.3-17.6 0-5.9 2.2-10.5 6.6-14s10.3-5.2 17.7-5.2c4.7 0 9 .7 13.1 1.9 4 1.3 7.6 3.1 10.6 5.3l-4.8 4.8c-5.2-3.8-11.5-5.7-18.9-5.7-5.6 0-9.8 1.1-12.8 3.3s-4.4 5.4-4.4 9.6c0 3.5 1.1 6.2 3.3 7.9 2.2 1.8 5.7 2.9 10.4 3.3l10.9 1c2.8.3 5.4.7 7.8 1.3 2.4.6 4.5 1.6 6.2 2.9s3.1 3.1 4.1 5.3 1.6 5 1.6 8.3zM791.4 272.3c0 8.6 1.9 15.2 5.6 19.8 3.7 4.6 9.2 6.9 16.3 6.9 4 0 7.4-.6 10.1-1.9 2.7-1.3 5.6-3.3 8.5-6.2l5.3 4.2c-1.7 1.7-3.4 3.2-5.1 4.5-1.7 1.3-3.5 2.4-5.5 3.2s-4 1.5-6.2 1.9c-2.2.4-4.8.6-7.5.6-9.3 0-16.4-2.9-21.3-8.8-4.9-5.9-7.3-14.4-7.3-25.7s2.4-19.4 7.1-25.4c4.8-6 11.4-9.1 19.8-9.1 8.5 0 15.1 2.9 19.8 8.7 4.8 5.8 7.1 13.8 7.1 24.2v3.2l-46.7-.1zm39.5-9.8c-.1-1.2-.2-2.2-.4-3.1-.2-.9-.4-1.8-.7-2.7-.3-.9-.6-1.8-1-2.9-1.5-3.5-3.8-6.3-6.9-8.3-3.1-2-6.6-3-10.6-3-3.9 0-7.4 1-10.6 3-3.1 2-5.4 4.8-6.9 8.3-.5 1-.8 2-1 2.9l-.6 2.7c-.2.9-.3 1.9-.4 3.1-.1 1.2-.2 2.5-.3 4.1h39.7c-.2-1.6-.3-2.9-.3-4.1zM896.6 304.5v-41.8c0-6.5-1.6-11.5-4.8-15-3.2-3.5-7.8-5.2-13.8-5.2-6 0-10.7 1.7-14.1 5.2s-5 8.5-5 14.9v41.8h-7.1V237h7.1v8c5-5.9 11.6-8.8 19.8-8.8 7.5 0 13.4 2.1 17.9 6.4 4.7 4.5 7 10.7 7 18.7v43.1h-7v.1zM938.5 322.8c-1.3 3.6-2.8 6.3-4.6 7.8-1.7 1.6-3.7 2.7-5.9 3.4-2.3.7-4.5 1-6.8 1h-3.4v-6.3h2.7c2 0 3.6-.2 4.8-.5 1.3-.3 2.3-.9 3.3-1.6.9-.7 1.7-1.7 2.3-2.9.6-1.2 1.2-2.6 1.9-4.3l5.5-15-24.6-67.4h7.8l20.3 59 20.3-59h7.8l-31.4 85.8zM323.5 273.1c0 6.2 1.5 11.1 4.6 14.6 3.1 3.6 7.5 5.3 13.4 5.3 4 0 7.2-.6 9.7-1.7 2.5-1.2 4.9-3 7.5-5.5l9.1 8.5c-1.9 1.8-3.7 3.4-5.5 4.8-1.8 1.3-3.8 2.5-5.9 3.4-2.1.9-4.4 1.6-6.8 2.1-2.5.4-5.2.7-8.3.7-4.5 0-8.6-.6-12.5-1.9-3.9-1.2-7.2-3.3-10.1-6.2-2.9-2.8-5.1-6.6-6.8-11.2-1.7-4.7-2.5-10.3-2.5-17 0-11.5 2.7-20.5 8.2-26.7 5.5-6.3 12.8-9.4 21.9-9.4 4.7 0 9 .8 12.7 2.5 3.7 1.7 6.9 4 9.4 7s4.5 6.6 5.9 10.7c1.3 4.2 2 8.8 2 13.8v6.3l-46-.1zm31.3-15.2c-.2-1.3-.7-2.8-1.5-4.4-1.1-2.7-2.9-4.9-5.3-6.5-2.4-1.6-5.3-2.4-8.7-2.4-3.4 0-6.3.8-8.7 2.4-2.5 1.6-4.3 3.8-5.4 6.5-.7 1.6-1.2 3-1.4 4.4s-.3 3.1-.4 5.2h31.8c0-2.1-.1-3.8-.4-5.2zM436.7 268.9c0 2.7-.1 5.4-.2 8.2-.1 2.8-.5 5.5-1 8.2s-1.4 5.1-2.5 7.5c-1.1 2.3-2.5 4.4-4.3 6.2-2 2-4.4 3.5-7.4 4.6-3 1.1-6.2 1.7-9.8 1.7-3.8 0-7.2-.6-10.2-1.7-3-1.2-5.8-3.3-8.4-6.4V333h-14.2v-99.4h14v7.5c2.7-3.2 5.5-5.5 8.4-6.6 2.9-1.2 6.4-1.7 10.3-1.7 3.5 0 6.8.6 9.8 1.7 3 1.1 5.5 2.7 7.5 4.6 1.8 1.8 3.2 3.8 4.3 6.2 1.1 2.3 1.9 4.8 2.5 7.4.6 2.6.9 5.3 1 8.1.1 2.7.2 5.4.2 8.1zm-14.2 0c0-3.2-.2-6.2-.5-9s-1-5.3-2-7.5c-1-2.1-2.5-3.8-4.5-5.1s-4.5-1.9-7.7-1.9-5.8.6-7.7 1.9c-1.9 1.2-3.4 3-4.5 5.1-1.1 2.1-1.8 4.6-2.1 7.5-.3 2.8-.5 5.8-.5 9s.2 6.2.5 9 1 5.4 2.1 7.5 2.6 3.9 4.5 5.2c1.9 1.2 4.5 1.9 7.7 1.9s5.7-.6 7.7-1.9 3.4-3 4.5-5.2c1-2.2 1.7-4.7 2-7.5.3-2.8.5-5.8.5-9zM548.1 268.9c0 6-.6 11.3-1.7 15.8s-3.4 8.5-6.7 12.1c-2.3 2.4-5.2 4.4-8.7 6-3.5 1.6-7.7 2.4-12.5 2.4s-9-.8-12.4-2.4c-3.5-1.6-6.3-3.6-8.6-6-3.4-3.5-5.6-7.6-6.7-12.1-1.1-4.5-1.7-9.8-1.7-15.8s.6-11.2 1.7-15.7 3.4-8.5 6.7-12.1c2.3-2.4 5.2-4.4 8.6-6 3.4-1.6 7.6-2.4 12.4-2.4s9 .8 12.5 2.4c3.5 1.6 6.4 3.6 8.7 6 3.4 3.5 5.6 7.6 6.7 12.1 1.1 4.5 1.7 9.7 1.7 15.7zm-14.3 0c0-3.9-.3-7.6-.8-11-.6-3.4-1.9-6.2-4-8.4-2.7-2.7-6.2-4-10.5-4s-7.6 1.3-10.3 4c-2.1 2.1-3.5 4.9-4 8.4-.6 3.4-.8 7.1-.8 11s.3 7.6.8 11 1.9 6.2 4 8.4c2.8 2.8 6.2 4.2 10.3 4.2s7.7-1.4 10.5-4.2c2.1-2.1 3.5-4.9 4-8.4.5-3.4.8-7.1.8-11z"/><path class="st2" d="M482.4 247.6c-4.6.2-11.1 3.1-14.3 6.5-3.4 3.6-5.9 8.5-5.9 16.1l-.1 33.9h-14.4v-35.8c0-9.9 3.5-18.4 10.6-25.4 7-6.9 14.7-10.4 24.4-10.5l-.3 15.2zM303.1 247.6c-4.6.2-11.1 3.1-14.3 6.5-3.4 3.6-5.9 8.5-5.9 16.1l-.1 33.9h-14.4v-35.8c0-9.9 3.6-18.4 10.6-25.4 7-6.9 14.7-10.4 24.4-10.5l-.3 15.2z"/></svg>